<svg width="2048px" height="2048px" viewBox="0 0 2048 2048" xmlns="http://www.w3.org/2000/svg" xmlns:xlink="http://www.w3.org/1999/xlink"><path transform="translate(0,2048) scale(1,-1)" fill="#106ebe" d= "M960 128Q827 128 704.5 162Q582 196 475 258.5Q368 321 280.5 408.5Q193 496 130.5 603Q68 710 34 832.5Q0 955 0 1088Q0 1221 34 1343.5Q68 1466 130.5 1573Q193 1680 280.5 1767.5Q368 1855 475 1917.5Q582 1980 704.5 2014Q827 2048 960 2048Q1093 2048 1215.5 2014Q1338 1980 1445 1917.5Q1552 1855 1639.5 1767.5Q1727 1680 1789.5 1573Q1852 1466 1886 1343.5Q1920 1221 1920 1088Q1920 955 1886 832.5Q1852 710 1789.5 603Q1727 496 1639.5 408.5Q1552 321 1445 258.5Q1338 196 1215.5 162Q1093 128 960 128ZM960 1920Q845 1920 739 1890Q633 1860 540.5 1806Q448 1752 372 1676Q296 1600 242 1507.5Q188 1415 158 1308.5Q128 1202 128 1088Q128 974 158 867.5Q188 761 242 668.5Q296 576 372 500Q448 424 540.5 370Q633 316 739 286Q845 256 960 256Q1074 256 1180.5 286Q1287 316 1379.5 370Q1472 424 1548 500Q1624 576 1678 668.5Q1732 761 1762 867Q1792 973 1792 1088Q1792 1202 1762 1308.5Q1732 1415 1678 1507.5Q1624 1600 1548 1676Q1472 1752 1379.5 1806Q1287 1860 1180.5 1890Q1074 1920 960 1920ZM896 640L896 1280L1024 1280L1024 640L896 640ZM896 1408L896 1536L1024 1536L1024 1408L896 1408Z"></path></svg>