<svg height="512" viewBox="0 0 64 64" width="512" xmlns="http://www.w3.org/2000/svg" xmlns:xlink="http://www.w3.org/1999/xlink"><linearGradient id="New_Gradient_Swatch_3" gradientUnits="userSpaceOnUse" x1="32" x2="32" y1="69.062" y2="1.45"><stop offset="0" stop-color="#006df0"/><stop offset="1" stop-color="#00e7f0"/></linearGradient><linearGradient id="New_Gradient_Swatch_3-2" x1="26" x2="26" xlink:href="#New_Gradient_Swatch_3" y1="69.062" y2="1.45"/><linearGradient id="New_Gradient_Swatch_3-3" x1="14" x2="14" xlink:href="#New_Gradient_Swatch_3" y1="69.062" y2="1.45"/><linearGradient id="New_Gradient_Swatch_3-4" x1="50" x2="50" xlink:href="#New_Gradient_Swatch_3" y1="69.062" y2="1.45"/><linearGradient id="New_Gradient_Swatch_3-8" x1="38" x2="38" xlink:href="#New_Gradient_Swatch_3" y1="69.062" y2="1.45"/><linearGradient id="New_Gradient_Swatch_3-9" x1="37.5" x2="37.5" xlink:href="#New_Gradient_Swatch_3" y1="69.062" y2="1.45"/><linearGradient id="New_Gradient_Swatch_3-11" x1="49" x2="49" xlink:href="#New_Gradient_Swatch_3" y1="69.062" y2="1.45"/><linearGradient id="New_Gradient_Swatch_3-12" x1="49.122" x2="49.122" xlink:href="#New_Gradient_Swatch_3" y1="69.062" y2="1.45"/><g id="Calendar"><path d="m57 8h-5v-2a4 4 0 0 0 -8 0v2h-8v-2a4 4 0 0 0 -8 0v2h-8v-2a4 4 0 0 0 -8 0v2h-5a5 5 0 0 0 -5 5v40a5 5 0 0 0 5 5h28a1 1 0 0 0 0-2h-28a3.009 3.009 0 0 1 -3-3v-31h56v17a1 1 0 0 0 2 0v-26a5 5 0 0 0 -5-5zm-11-2a2 2 0 0 1 4 0v6a2 2 0 0 1 -4 0zm-16 0a2 2 0 0 1 4 0v6a2 2 0 0 1 -4 0zm-16 0a2 2 0 0 1 4 0v6a2 2 0 0 1 -4 0zm46 14h-56v-7a3.009 3.009 0 0 1 3-3h5v2a4 4 0 0 0 8 0v-2h8v2a4 4 0 0 0 8 0v-2h8v2a4 4 0 0 0 8 0v-2h5a3.009 3.009 0 0 1 3 3z" fill="url(#New_Gradient_Swatch_3)"/><path d="m30 29a2 2 0 0 0 -2-2h-4a2 2 0 0 0 -2 2v3a2 2 0 0 0 2 2h4a2 2 0 0 0 2-2zm-6 3v-3h4v3z" fill="url(#New_Gradient_Swatch_3-2)"/><path d="m18 29a2 2 0 0 0 -2-2h-4a2 2 0 0 0 -2 2v3a2 2 0 0 0 2 2h4a2 2 0 0 0 2-2zm-6 3v-3h4v3z" fill="url(#New_Gradient_Swatch_3-3)"/><path d="m52 34a2 2 0 0 0 2-2v-3a2 2 0 0 0 -2-2h-4a2 2 0 0 0 -2 2v3a2 2 0 0 0 2 2zm-4-5h4v3h-4z" fill="url(#New_Gradient_Swatch_3-4)"/><path d="m30 38a2 2 0 0 0 -2-2h-4a2 2 0 0 0 -2 2v3a2 2 0 0 0 2 2h4a2 2 0 0 0 2-2zm-6 3v-3h4v3z" fill="url(#New_Gradient_Swatch_3-2)"/><path d="m18 38a2 2 0 0 0 -2-2h-4a2 2 0 0 0 -2 2v3a2 2 0 0 0 2 2h4a2 2 0 0 0 2-2zm-6 3v-3h4v3z" fill="url(#New_Gradient_Swatch_3-3)"/><path d="m28 45h-4a2 2 0 0 0 -2 2v3a2 2 0 0 0 2 2h4a2 2 0 0 0 2-2v-3a2 2 0 0 0 -2-2zm-4 5v-3h4v3z" fill="url(#New_Gradient_Swatch_3-2)"/><path d="m36 34h4a2 2 0 0 0 2-2v-3a2 2 0 0 0 -2-2h-4a2 2 0 0 0 -2 2v3a2 2 0 0 0 2 2zm0-5h4v3h-4z" fill="url(#New_Gradient_Swatch_3-8)"/><path d="m34 41a2 2 0 0 0 2 2 1 1 0 0 0 0-2v-3h4a1 1 0 0 0 0-2h-4a2 2 0 0 0 -2 2z" fill="url(#New_Gradient_Swatch_3-9)"/><path d="m16 45h-4a2 2 0 0 0 -2 2v3a2 2 0 0 0 2 2h4a2 2 0 0 0 2-2v-3a2 2 0 0 0 -2-2zm-4 5v-3h4v3z" fill="url(#New_Gradient_Swatch_3-3)"/><path d="m49 36a13 13 0 1 0 13 13 13.015 13.015 0 0 0 -13-13zm0 24a11 11 0 1 1 11-11 11.013 11.013 0 0 1 -11 11z" fill="url(#New_Gradient_Swatch_3-11)"/><path d="m54.778 44.808-7.778 7.778-3.535-3.536a1 1 0 0 0 -1.414 1.414l4.242 4.243a1 1 0 0 0 1.414 0l8.485-8.485a1 1 0 0 0 -1.414-1.414z" fill="url(#New_Gradient_Swatch_3-12)"/></g></svg>