<?xml version="1.0" encoding="UTF-8" standalone="no"?>
<!DOCTYPE svg PUBLIC "-//W3C//DTD SVG 1.1//EN"
 "http://www.w3.org/Graphics/SVG/1.1/DTD/svg11.dtd">
<!-- Generated by graphviz version 2.47.1 (20210417.1919)
 -->
<!-- Title: Building Access Pages: 1 -->
<svg width="2937pt" height="116pt"
 viewBox="0.00 0.00 2936.50 116.00" xmlns="http://www.w3.org/2000/svg" xmlns:xlink="http://www.w3.org/1999/xlink">
<g id="graph0" class="graph" transform="scale(1 1) rotate(0) translate(4 112)">
<title>Building Access</title>
<polygon fill="white" stroke="transparent" points="-4,4 -4,-112 2932.5,-112 2932.5,4 -4,4"/>
<!-- Date Space Screen -->
<g id="node1" class="node">
<title>Date Space Screen</title>
<polygon fill="none" stroke="black" points="143.5,-108 13.5,-108 13.5,-72 143.5,-72 143.5,-108"/>
<text text-anchor="start" x="25.5" y="-85.8" font-family="Times New Roman,serif" font-size="14.00">Date Space Screen</text>
</g>
<!-- &#39;BuildingScreen&#39; -->
<g id="node2" class="node">
<title>&#39;BuildingScreen&#39;</title>
<polygon fill="none" stroke="black" points="333,-36 218,-36 218,0 333,0 333,-36"/>
<text text-anchor="start" x="230.5" y="-13.8" font-family="Times New Roman,serif" font-size="14.00">&#39;BuildingScreen&#39;</text>
</g>
<!-- Date Space Screen&#45;&gt;&#39;BuildingScreen&#39; -->
<g id="edge1" class="edge">
<title>Date Space Screen&#45;&gt;&#39;BuildingScreen&#39;</title>
<path fill="none" stroke="black" d="M126.44,-71.97C153.97,-62.19 188.72,-49.84 217.74,-39.52"/>
<polygon fill="black" stroke="black" points="219.09,-42.76 227.35,-36.11 216.75,-36.16 219.09,-42.76"/>
</g>
<!-- &#39;SelectApproverScreen&#39; -->
<g id="node3" class="node">
<title>&#39;SelectApproverScreen&#39;</title>
<polygon fill="none" stroke="black" points="157,-36 0,-36 0,0 157,0 157,-36"/>
<text text-anchor="start" x="12.5" y="-13.8" font-family="Times New Roman,serif" font-size="14.00">&#39;SelectApproverScreen&#39;</text>
</g>
<!-- Date Space Screen&#45;&gt;&#39;SelectApproverScreen&#39; -->
<g id="edge2" class="edge">
<title>Date Space Screen&#45;&gt;&#39;SelectApproverScreen&#39;</title>
<path fill="none" stroke="black" d="M78.5,-71.7C78.5,-63.98 78.5,-54.71 78.5,-46.11"/>
<polygon fill="black" stroke="black" points="82,-46.1 78.5,-36.1 75,-46.1 82,-46.1"/>
</g>
<!-- New Request Key Questions Screen -->
<g id="node4" class="node">
<title>New Request Key Questions Screen</title>
<polygon fill="none" stroke="black" points="389.5,-108 161.5,-108 161.5,-72 389.5,-72 389.5,-108"/>
<text text-anchor="start" x="173.5" y="-85.8" font-family="Times New Roman,serif" font-size="14.00">New Request Key Questions Screen</text>
</g>
<!-- New Request Key Questions Screen&#45;&gt;&#39;BuildingScreen&#39; -->
<g id="edge3" class="edge">
<title>New Request Key Questions Screen&#45;&gt;&#39;BuildingScreen&#39;</title>
<path fill="none" stroke="black" d="M275.5,-71.7C275.5,-63.98 275.5,-54.71 275.5,-46.11"/>
<polygon fill="black" stroke="black" points="279,-46.1 275.5,-36.1 272,-46.1 279,-46.1"/>
</g>
<!-- Approval Screen -->
<g id="node5" class="node">
<title>Approval Screen</title>
<polygon fill="none" stroke="black" points="1078,-108 959,-108 959,-72 1078,-72 1078,-108"/>
<text text-anchor="start" x="971.5" y="-85.8" font-family="Times New Roman,serif" font-size="14.00">Approval Screen</text>
</g>
<!-- &#39;ApprovalDetailScreen&#39; -->
<g id="node6" class="node">
<title>&#39;ApprovalDetailScreen&#39;</title>
<polygon fill="none" stroke="black" points="943,-36 790,-36 790,0 943,0 943,-36"/>
<text text-anchor="start" x="802.5" y="-13.8" font-family="Times New Roman,serif" font-size="14.00">&#39;ApprovalDetailScreen&#39;</text>
</g>
<!-- Approval Screen&#45;&gt;&#39;ApprovalDetailScreen&#39; -->
<g id="edge4" class="edge">
<title>Approval Screen&#45;&gt;&#39;ApprovalDetailScreen&#39;</title>
<path fill="none" stroke="black" d="M981.32,-71.88C960.63,-62.35 934.7,-50.41 912.72,-40.28"/>
<polygon fill="black" stroke="black" points="914.11,-37.07 903.56,-36.07 911.18,-43.43 914.11,-37.07"/>
</g>
<!-- &#39;RejectReasonScreen&#39; -->
<g id="node7" class="node">
<title>&#39;RejectReasonScreen&#39;</title>
<polygon fill="none" stroke="black" points="1246.5,-36 1100.5,-36 1100.5,0 1246.5,0 1246.5,-36"/>
<text text-anchor="start" x="1112.5" y="-13.8" font-family="Times New Roman,serif" font-size="14.00">&#39;RejectReasonScreen&#39;</text>
</g>
<!-- Approval Screen&#45;&gt;&#39;RejectReasonScreen&#39; -->
<g id="edge5" class="edge">
<title>Approval Screen&#45;&gt;&#39;RejectReasonScreen&#39;</title>
<path fill="none" stroke="black" d="M1056.42,-71.88C1077.51,-62.35 1103.96,-50.41 1126.37,-40.28"/>
<polygon fill="black" stroke="black" points="1128.03,-43.37 1135.71,-36.07 1125.15,-36.99 1128.03,-43.37"/>
</g>
<!-- Approval Detail Screen -->
<g id="node8" class="node">
<title>Approval Detail Screen</title>
<polygon fill="none" stroke="black" points="1250.5,-108 1096.5,-108 1096.5,-72 1250.5,-72 1250.5,-108"/>
<text text-anchor="start" x="1108.5" y="-85.8" font-family="Times New Roman,serif" font-size="14.00">Approval Detail Screen</text>
</g>
<!-- Approval Detail Screen&#45;&gt;&#39;RejectReasonScreen&#39; -->
<g id="edge7" class="edge">
<title>Approval Detail Screen&#45;&gt;&#39;RejectReasonScreen&#39;</title>
<path fill="none" stroke="black" d="M1173.5,-71.7C1173.5,-63.98 1173.5,-54.71 1173.5,-46.11"/>
<polygon fill="black" stroke="black" points="1177,-46.1 1173.5,-36.1 1170,-46.1 1177,-46.1"/>
</g>
<!-- &#39;ApprovalScreen&#39; -->
<g id="node9" class="node">
<title>&#39;ApprovalScreen&#39;</title>
<polygon fill="none" stroke="black" points="1082,-36 961,-36 961,0 1082,0 1082,-36"/>
<text text-anchor="start" x="973.5" y="-13.8" font-family="Times New Roman,serif" font-size="14.00">&#39;ApprovalScreen&#39;</text>
</g>
<!-- Approval Detail Screen&#45;&gt;&#39;ApprovalScreen&#39; -->
<g id="edge6" class="edge">
<title>Approval Detail Screen&#45;&gt;&#39;ApprovalScreen&#39;</title>
<path fill="none" stroke="black" d="M1136.32,-71.88C1115.63,-62.35 1089.7,-50.41 1067.72,-40.28"/>
<polygon fill="black" stroke="black" points="1069.11,-37.07 1058.56,-36.07 1066.18,-43.43 1069.11,-37.07"/>
</g>
<!-- Reject Reason Screen -->
<g id="node10" class="node">
<title>Reject Reason Screen</title>
<polygon fill="none" stroke="black" points="940.5,-108 792.5,-108 792.5,-72 940.5,-72 940.5,-108"/>
<text text-anchor="start" x="804.5" y="-85.8" font-family="Times New Roman,serif" font-size="14.00">Reject Reason Screen</text>
</g>
<!-- Reject Reason Screen&#45;&gt;&#39;ApprovalDetailScreen&#39; -->
<g id="edge9" class="edge">
<title>Reject Reason Screen&#45;&gt;&#39;ApprovalDetailScreen&#39;</title>
<path fill="none" stroke="black" d="M866.5,-71.7C866.5,-63.98 866.5,-54.71 866.5,-46.11"/>
<polygon fill="black" stroke="black" points="870,-46.1 866.5,-36.1 863,-46.1 870,-46.1"/>
</g>
<!-- Reject Reason Screen&#45;&gt;&#39;ApprovalScreen&#39; -->
<g id="edge8" class="edge">
<title>Reject Reason Screen&#45;&gt;&#39;ApprovalScreen&#39;</title>
<path fill="none" stroke="black" d="M904.42,-71.88C925.51,-62.35 951.96,-50.41 974.37,-40.28"/>
<polygon fill="black" stroke="black" points="976.03,-43.37 983.71,-36.07 973.15,-36.99 976.03,-43.37"/>
</g>
<!-- Building Screen -->
<g id="node11" class="node">
<title>Building Screen</title>
<polygon fill="none" stroke="black" points="1642.5,-108 1530.5,-108 1530.5,-72 1642.5,-72 1642.5,-108"/>
<text text-anchor="start" x="1542.5" y="-85.8" font-family="Times New Roman,serif" font-size="14.00">Building Screen</text>
</g>
<!-- [@&#39;NewRequestKeyQuestionsScreen&#39;] -->
<g id="node12" class="node">
<title>[@&#39;NewRequestKeyQuestionsScreen&#39;]</title>
<polygon fill="none" stroke="black" points="1506,-36 1265,-36 1265,0 1506,0 1506,-36"/>
<text text-anchor="start" x="1277.5" y="-13.8" font-family="Times New Roman,serif" font-size="14.00">[@&#39;NewRequestKeyQuestionsScreen&#39;]</text>
</g>
<!-- Building Screen&#45;&gt;[@&#39;NewRequestKeyQuestionsScreen&#39;] -->
<g id="edge10" class="edge">
<title>Building Screen&#45;&gt;[@&#39;NewRequestKeyQuestionsScreen&#39;]</title>
<path fill="none" stroke="black" d="M1537.59,-71.97C1509.5,-62.19 1474.04,-49.84 1444.43,-39.52"/>
<polygon fill="black" stroke="black" points="1445.23,-36.09 1434.63,-36.11 1442.93,-42.71 1445.23,-36.09"/>
</g>
<!-- [@&#39;HomeScreen&#39;] -->
<g id="node13" class="node">
<title>[@&#39;HomeScreen&#39;]</title>
<polygon fill="none" stroke="black" points="1648.5,-36 1524.5,-36 1524.5,0 1648.5,0 1648.5,-36"/>
<text text-anchor="start" x="1536.5" y="-13.8" font-family="Times New Roman,serif" font-size="14.00">[@&#39;HomeScreen&#39;]</text>
</g>
<!-- Building Screen&#45;&gt;[@&#39;HomeScreen&#39;] -->
<g id="edge11" class="edge">
<title>Building Screen&#45;&gt;[@&#39;HomeScreen&#39;]</title>
<path fill="none" stroke="black" d="M1586.5,-71.7C1586.5,-63.98 1586.5,-54.71 1586.5,-46.11"/>
<polygon fill="black" stroke="black" points="1590,-46.1 1586.5,-36.1 1583,-46.1 1590,-46.1"/>
</g>
<!-- [@&#39;DateSpaceScreen&#39;] -->
<g id="node14" class="node">
<title>[@&#39;DateSpaceScreen&#39;]</title>
<polygon fill="none" stroke="black" points="1818,-36 1667,-36 1667,0 1818,0 1818,-36"/>
<text text-anchor="start" x="1679.5" y="-13.8" font-family="Times New Roman,serif" font-size="14.00">[@&#39;DateSpaceScreen&#39;]</text>
</g>
<!-- Building Screen&#45;&gt;[@&#39;DateSpaceScreen&#39;] -->
<g id="edge12" class="edge">
<title>Building Screen&#45;&gt;[@&#39;DateSpaceScreen&#39;]</title>
<path fill="none" stroke="black" d="M1624.66,-71.88C1645.89,-62.35 1672.51,-50.41 1695.07,-40.28"/>
<polygon fill="black" stroke="black" points="1696.77,-43.36 1704.46,-36.07 1693.91,-36.97 1696.77,-43.36"/>
</g>
<!-- Select Approver Screen -->
<g id="node15" class="node">
<title>Select Approver Screen</title>
<polygon fill="none" stroke="black" points="2072.5,-108 1914.5,-108 1914.5,-72 2072.5,-72 2072.5,-108"/>
<text text-anchor="start" x="1926.5" y="-85.8" font-family="Times New Roman,serif" font-size="14.00">Select Approver Screen</text>
</g>
<!-- &#39;MyRequestListScreen&#39; -->
<g id="node16" class="node">
<title>&#39;MyRequestListScreen&#39;</title>
<polygon fill="none" stroke="black" points="1990.5,-36 1836.5,-36 1836.5,0 1990.5,0 1990.5,-36"/>
<text text-anchor="start" x="1848.5" y="-13.8" font-family="Times New Roman,serif" font-size="14.00">&#39;MyRequestListScreen&#39;</text>
</g>
<!-- Select Approver Screen&#45;&gt;&#39;MyRequestListScreen&#39; -->
<g id="edge13" class="edge">
<title>Select Approver Screen&#45;&gt;&#39;MyRequestListScreen&#39;</title>
<path fill="none" stroke="black" d="M1973.72,-71.7C1963.75,-62.97 1951.49,-52.24 1940.64,-42.75"/>
<polygon fill="black" stroke="black" points="1942.88,-40.06 1933.05,-36.1 1938.27,-45.32 1942.88,-40.06"/>
</g>
<!-- &#39;DateSpaceScreen&#39; -->
<g id="node17" class="node">
<title>&#39;DateSpaceScreen&#39;</title>
<polygon fill="none" stroke="black" points="2138,-36 2009,-36 2009,0 2138,0 2138,-36"/>
<text text-anchor="start" x="2021.5" y="-13.8" font-family="Times New Roman,serif" font-size="14.00">&#39;DateSpaceScreen&#39;</text>
</g>
<!-- Select Approver Screen&#45;&gt;&#39;DateSpaceScreen&#39; -->
<g id="edge14" class="edge">
<title>Select Approver Screen&#45;&gt;&#39;DateSpaceScreen&#39;</title>
<path fill="none" stroke="black" d="M2013.28,-71.7C2023.25,-62.97 2035.51,-52.24 2046.36,-42.75"/>
<polygon fill="black" stroke="black" points="2048.73,-45.32 2053.95,-36.1 2044.12,-40.06 2048.73,-45.32"/>
</g>
<!-- Home Screen -->
<g id="node18" class="node">
<title>Home Screen</title>
<polygon fill="none" stroke="black" points="2302.5,-108 2202.5,-108 2202.5,-72 2302.5,-72 2302.5,-108"/>
<text text-anchor="start" x="2214.5" y="-85.8" font-family="Times New Roman,serif" font-size="14.00">Home Screen</text>
</g>
<!-- [@&#39;MyRequestDetailsScreen&#39;] -->
<g id="node19" class="node">
<title>[@&#39;MyRequestDetailsScreen&#39;]</title>
<polygon fill="none" stroke="black" points="2349,-36 2156,-36 2156,0 2349,0 2349,-36"/>
<text text-anchor="start" x="2168.5" y="-13.8" font-family="Times New Roman,serif" font-size="14.00">[@&#39;MyRequestDetailsScreen&#39;]</text>
</g>
<!-- Home Screen&#45;&gt;[@&#39;MyRequestDetailsScreen&#39;] -->
<g id="edge15" class="edge">
<title>Home Screen&#45;&gt;[@&#39;MyRequestDetailsScreen&#39;]</title>
<path fill="none" stroke="black" d="M2252.5,-71.7C2252.5,-63.98 2252.5,-54.71 2252.5,-46.11"/>
<polygon fill="black" stroke="black" points="2256,-46.1 2252.5,-36.1 2249,-46.1 2256,-46.1"/>
</g>
<!-- Key Questions Screen -->
<g id="node20" class="node">
<title>Key Questions Screen</title>
<polygon fill="none" stroke="black" points="761,-108 612,-108 612,-72 761,-72 761,-108"/>
<text text-anchor="start" x="624.5" y="-85.8" font-family="Times New Roman,serif" font-size="14.00">Key Questions Screen</text>
</g>
<!-- &#39;MyRequestDetailsScreen&#39; -->
<g id="node21" class="node">
<title>&#39;MyRequestDetailsScreen&#39;</title>
<polygon fill="none" stroke="black" points="772,-36 601,-36 601,0 772,0 772,-36"/>
<text text-anchor="start" x="613.5" y="-13.8" font-family="Times New Roman,serif" font-size="14.00">&#39;MyRequestDetailsScreen&#39;</text>
</g>
<!-- Key Questions Screen&#45;&gt;&#39;MyRequestDetailsScreen&#39; -->
<g id="edge16" class="edge">
<title>Key Questions Screen&#45;&gt;&#39;MyRequestDetailsScreen&#39;</title>
<path fill="none" stroke="black" d="M686.5,-71.7C686.5,-63.98 686.5,-54.71 686.5,-46.11"/>
<polygon fill="black" stroke="black" points="690,-46.1 686.5,-36.1 683,-46.1 690,-46.1"/>
</g>
<!-- My Request List Screen -->
<g id="node22" class="node">
<title>My Request List Screen</title>
<polygon fill="none" stroke="black" points="567.5,-108 407.5,-108 407.5,-72 567.5,-72 567.5,-108"/>
<text text-anchor="start" x="419.5" y="-85.8" font-family="Times New Roman,serif" font-size="14.00">My Request List Screen</text>
</g>
<!-- My Request List Screen&#45;&gt;&#39;BuildingScreen&#39; -->
<g id="edge19" class="edge">
<title>My Request List Screen&#45;&gt;&#39;BuildingScreen&#39;</title>
<path fill="none" stroke="black" d="M435.91,-71.97C406.03,-62.1 368.24,-49.62 336.84,-39.25"/>
<polygon fill="black" stroke="black" points="337.91,-35.92 327.32,-36.11 335.72,-42.57 337.91,-35.92"/>
</g>
<!-- My Request List Screen&#45;&gt;&#39;MyRequestDetailsScreen&#39; -->
<g id="edge17" class="edge">
<title>My Request List Screen&#45;&gt;&#39;MyRequestDetailsScreen&#39;</title>
<path fill="none" stroke="black" d="M535.93,-71.97C563.73,-62.19 598.84,-49.84 628.15,-39.52"/>
<polygon fill="black" stroke="black" points="629.58,-42.73 637.86,-36.11 627.26,-36.13 629.58,-42.73"/>
</g>
<!-- &#39;NewRequestKeyQuestionsScreen&#39; -->
<g id="node23" class="node">
<title>&#39;NewRequestKeyQuestionsScreen&#39;</title>
<polygon fill="none" stroke="black" points="583,-36 364,-36 364,0 583,0 583,-36"/>
<text text-anchor="start" x="376.5" y="-13.8" font-family="Times New Roman,serif" font-size="14.00">&#39;NewRequestKeyQuestionsScreen&#39;</text>
</g>
<!-- My Request List Screen&#45;&gt;&#39;NewRequestKeyQuestionsScreen&#39; -->
<g id="edge18" class="edge">
<title>My Request List Screen&#45;&gt;&#39;NewRequestKeyQuestionsScreen&#39;</title>
<path fill="none" stroke="black" d="M484.04,-71.7C482.5,-63.98 480.64,-54.71 478.92,-46.11"/>
<polygon fill="black" stroke="black" points="482.31,-45.22 476.92,-36.1 475.45,-46.6 482.31,-45.22"/>
</g>
<!-- Safety Precaution List Screen -->
<g id="node24" class="node">
<title>Safety Precaution List Screen</title>
<polygon fill="none" stroke="black" points="2562.5,-108 2372.5,-108 2372.5,-72 2562.5,-72 2562.5,-108"/>
<text text-anchor="start" x="2384.5" y="-85.8" font-family="Times New Roman,serif" font-size="14.00">Safety Precaution List Screen</text>
</g>
<!-- &#39;SafetyPrecautionDetailsScreen&#39; -->
<g id="node25" class="node">
<title>&#39;SafetyPrecautionDetailsScreen&#39;</title>
<polygon fill="none" stroke="black" points="2568,-36 2367,-36 2367,0 2568,0 2568,-36"/>
<text text-anchor="start" x="2379.5" y="-13.8" font-family="Times New Roman,serif" font-size="14.00">&#39;SafetyPrecautionDetailsScreen&#39;</text>
</g>
<!-- Safety Precaution List Screen&#45;&gt;&#39;SafetyPrecautionDetailsScreen&#39; -->
<g id="edge20" class="edge">
<title>Safety Precaution List Screen&#45;&gt;&#39;SafetyPrecautionDetailsScreen&#39;</title>
<path fill="none" stroke="black" d="M2467.5,-71.7C2467.5,-63.98 2467.5,-54.71 2467.5,-46.11"/>
<polygon fill="black" stroke="black" points="2471,-46.1 2467.5,-36.1 2464,-46.1 2471,-46.1"/>
</g>
<!-- My Request Details Screen -->
<g id="node26" class="node">
<title>My Request Details Screen</title>
<polygon fill="none" stroke="black" points="2852.5,-108 2676.5,-108 2676.5,-72 2852.5,-72 2852.5,-108"/>
<text text-anchor="start" x="2688.5" y="-85.8" font-family="Times New Roman,serif" font-size="14.00">My Request Details Screen</text>
</g>
<!-- [@&#39;MyRequestListScreen&#39;] -->
<g id="node27" class="node">
<title>[@&#39;MyRequestListScreen&#39;]</title>
<polygon fill="none" stroke="black" points="2762.5,-36 2586.5,-36 2586.5,0 2762.5,0 2762.5,-36"/>
<text text-anchor="start" x="2598.5" y="-13.8" font-family="Times New Roman,serif" font-size="14.00">[@&#39;MyRequestListScreen&#39;]</text>
</g>
<!-- My Request Details Screen&#45;&gt;[@&#39;MyRequestListScreen&#39;] -->
<g id="edge21" class="edge">
<title>My Request Details Screen&#45;&gt;[@&#39;MyRequestListScreen&#39;]</title>
<path fill="none" stroke="black" d="M2742.25,-71.7C2730.92,-62.88 2716.97,-52.03 2704.68,-42.47"/>
<polygon fill="black" stroke="black" points="2706.53,-39.48 2696.49,-36.1 2702.24,-45.01 2706.53,-39.48"/>
</g>
<!-- &#39;KeyQuestionsScreen&#39; -->
<g id="node28" class="node">
<title>&#39;KeyQuestionsScreen&#39;</title>
<polygon fill="none" stroke="black" points="2928.5,-36 2780.5,-36 2780.5,0 2928.5,0 2928.5,-36"/>
<text text-anchor="start" x="2792.5" y="-13.8" font-family="Times New Roman,serif" font-size="14.00">&#39;KeyQuestionsScreen&#39;</text>
</g>
<!-- My Request Details Screen&#45;&gt;&#39;KeyQuestionsScreen&#39; -->
<g id="edge22" class="edge">
<title>My Request Details Screen&#45;&gt;&#39;KeyQuestionsScreen&#39;</title>
<path fill="none" stroke="black" d="M2786.75,-71.7C2798.08,-62.88 2812.03,-52.03 2824.32,-42.47"/>
<polygon fill="black" stroke="black" points="2826.76,-45.01 2832.51,-36.1 2822.47,-39.48 2826.76,-45.01"/>
</g>
</g>
</svg>
